<svg width="9" height="8" viewBox="0 0 9 8" fill="none" xmlns="http://www.w3.org/2000/svg">
<path d="M8.5301 7.75556C8.85601 7.42964 8.85601 6.90122 8.5301 6.5753L5.9549 4.00006L8.53022 1.4247C8.85614 1.09878 8.85614 0.570359 8.53022 0.24444C8.20431 -0.0814796 7.6759 -0.0814796 7.34998 0.24444L4.77466 2.8198L2.19933 0.244439C1.87342 -0.0814802 1.34501 -0.0814795 1.01909 0.24444C0.69318 0.570359 0.69318 1.09878 1.01909 1.4247L3.59442 4.00006L1.01922 6.5753C0.693305 6.90122 0.693306 7.42964 1.01922 7.75556C1.34513 8.08148 1.87355 8.08148 2.19946 7.75556L4.77466 5.18032L7.34986 7.75556C7.67577 8.08148 8.20418 8.08148 8.5301 7.75556Z" fill="#6B7F94"/>
</svg>
